<?xml version="1.0" encoding="UTF-8"?>
<svg id="Layer_2" data-name="Layer 2" xmlns="http://www.w3.org/2000/svg" viewBox="0 0 417.09 380.83">
  <defs>
    <style>
      .cls-1 {
        fill: #6d5ebc;
        fill-rule: evenodd;
        stroke-width: 0px;
      }
    </style>
  </defs>
  <g id="Layer_1-2" data-name="Layer 1">
    <path class="cls-1" d="m106.25.07c-5.12.57-8.17.98-10.82,1.45-25.54,4.52-47.83,16.83-65.4,36.1C15.36,53.71,6.31,71.78,2.03,93.45c-3.16,16.01-2.62,34.29,1.47,49.92,2.21,8.44,4.35,14.2,8.26,22.21,3.99,8.17,6.75,12.32,13.71,20.55.69.82,1.83,2.21,2.52,3.08.69.87,1.75,2.16,2.35,2.86.6.7,1.75,2.09,2.56,3.08s7.5,9.14,14.87,18.11c7.37,8.97,13.4,16.46,13.4,16.65s-.12.39-.27.46c-.55.24-9.34,9.91-10.61,11.66-7.2,9.96-8.45,23.81-3.17,35.11,1.8,3.85,4.05,6.98,7.3,10.19,9.38,9.24,22.2,12.28,35.48,8.42.71-.21.81-.06,1.02,1.52,1.27,9.57,4.09,15.63,10.04,21.57,4.78,4.77,9.76,7.7,15.83,9.31,2.42.64,3.98.79,8.21.8,2.88,0,6.06-.14,7.07-.31l1.84-.31.22,2.47c1.02,11.59,8.56,21.42,19.88,25.91,2.86,1.13,6.19,1.69,10.13,1.69,4.38,0,7.73-.62,11.29-2.1,1.28-.53,2.4-.8,2.55-.62.15.18.48,1.21.74,2.3.64,2.74,3.65,8.78,5.6,11.25,3.85,4.88,10.27,9.05,16.61,10.79,2.3.63,3.84.79,7.57.79,5.93,0,9.78-.93,14.61-3.49,3.35-1.78,4.25-2.57,12.5-10.99,8.96-9.14,8.15-8.69,10.95-6.07,4.91,4.6,10.96,8.18,15.88,9.39,3.4.83,10.16.77,13.82-.12,11.9-2.92,21.24-13.77,22.18-25.78l.22-2.86,5.77-.06c6.5-.07,8.6-.53,13.24-2.89,4.83-2.46,8.72-6,11.55-10.51,3.49-5.56,4.74-9.79,4.74-16.07v-3.52s1.29,0,1.29,0c2.09,0,7.49-1.05,9.9-1.93,4.15-1.51,7.08-3.42,10.51-6.87,5.54-5.57,8.22-11.29,8.78-18.79l.22-2.89,3.25.12c12.04.46,23.43-6.54,28.31-17.39,2.01-4.47,2.33-6.1,2.33-12.13s-.31-7.66-2.33-12.13c-2.32-5.15-4.61-7.62-15.96-17.23-4.5-3.81-7.03-6.19-6.87-6.46.14-.23,2.63-3.67,5.53-7.64,17.85-24.44,19.98-27.42,22.05-30.84,2.35-3.89,6.42-12.17,8.15-16.58,7.39-18.82,9.68-38.78,6.75-58.79-2.45-16.77-8.82-33.35-18.08-47.07-9.79-14.5-24.12-27.99-38.26-36.02-13.86-7.86-26.63-12.18-43-14.54-6.35-.92-22.42-.91-28.85,0-18.73,2.68-34.13,8.41-48.69,18.13-6.39,4.27-10.3,7.49-18.7,15.4-4.05,3.81-8.31,7.8-9.48,8.86l-2.12,1.92-4.05-3.73c-2.23-2.05-4.23-3.89-4.45-4.09-.22-.2-2.82-2.58-5.78-5.29-6.49-5.95-10.29-9.03-15.3-12.43-10.56-7.16-22.21-12.51-34.26-15.72C134.88,1.1,127.84.17,116.53.04c-4.96-.06-9.58-.05-10.28.03m.9,13.51c-24.79,1.68-48.82,13.33-66.27,32.13-14.58,15.71-22.77,32.62-26.5,54.78-.92,5.47-.92,23.75,0,29.21,2.45,14.56,6.66,26.23,13.54,37.51.91,1.49,6.77,8.94,13.03,16.56,6.26,7.62,12.52,15.25,13.9,16.97,7.58,9.34,15.46,18.77,15.69,18.77.14,0,1.87-1.74,3.82-3.88s4.79-5.18,6.29-6.76c2.55-2.7,8.81-9.46,20.72-22.36,10.1-10.94,22.34-24.17,22.53-24.34.19-.17,11.46-12.36,15.33-16.58.99-1.08,3.11-3.36,4.7-5.05,1.59-1.69,4.67-5.03,6.85-7.4,2.18-2.38,5.19-5.62,6.69-7.21,1.5-1.59,4.65-5,7.01-7.58,6.45-7.04,10.35-10.99,11.44-11.57,1.46-.77,4.56-.66,6,.22.66.4,5.53,4.18,10.82,8.39,14.64,11.67,15.69,12.48,19.08,14.91,3.81,2.73,12.15,6.95,16.22,8.2,7.62,2.35,13.25,3.25,20.3,3.26,7.06,0,12.8-.87,19.48-2.97,2.58-.81,3.36-1.25,4.93-2.78,2.46-2.39,3.31-5,2.73-8.39-.62-3.64,1.08-1.88-24.63-25.52-6.04-5.55-12.28-11.3-13.87-12.78-3.48-3.24-3.63-3.38-17.67-16.25-6.15-5.64-11.99-11-12.98-11.92-5.91-5.45-12.14-11.2-13.7-12.64-16.47-15.22-20.66-18.43-31.28-23.92-16.84-8.71-34.65-12.33-54.19-11.01m186.65.03c-13.81.99-29.96,5.97-41.66,12.85-8.78,5.16-13.24,8.63-23.44,18.27-2.98,2.81-6.34,5.98-7.48,7.04s-2.07,2.13-2.07,2.38,1.91,2.21,4.24,4.36c2.33,2.16,5.05,4.67,6.04,5.59.99.92,13.32,12.26,27.39,25.21,14.07,12.95,26.18,24.24,26.92,25.09,1.71,1.98,3.4,4.94,4.34,7.6.91,2.58,1.29,8.46.74,11.39-1.59,8.47-7.48,15.11-15.92,17.95-20.3,6.82-43.33,4.64-62.21-5.91-5.29-2.95-6.87-4.1-19.48-14.11-4.76-3.78-9.36-7.42-10.22-8.1l-1.57-1.22-.96,1.05c-1.37,1.51-13.95,15.11-16.1,17.42-.99,1.07-1.97,2.12-2.17,2.35s-2.47,2.68-5.05,5.45c-2.58,2.77-5.5,5.93-6.49,7.02s-3.03,3.28-4.53,4.87c-2.51,2.66-7.39,7.93-20.71,22.37-2.78,3.01-8.94,9.67-13.7,14.79s-10.83,11.69-13.48,14.58c-2.66,2.89-5.82,6.31-7.04,7.6-1.22,1.29-5.21,5.59-8.87,9.56-3.66,3.97-6.74,7.29-6.84,7.39-.46.44-9.04,9.77-10.7,11.61-5.45,6.09-6.99,15-3.88,22.51,1.81,4.38,6.38,9.22,10.57,11.2,3.58,1.69,5.39,2.09,9.6,2.09,4.29,0,6.44-.49,9.81-2.24,3.46-1.8,2.73-1.08,29.27-29.01,8.26-8.69,9.32-9.69,10.94-10.22,2.09-.69,3.39-.52,5.55.74,2.86,1.67,3.89,5.73,2.22,8.76-.45.81-3.57,4.37-6.94,7.89-3.37,3.53-7.59,7.95-9.38,9.83-1.79,1.88-4.9,5.13-6.91,7.22-4.24,4.39-5.78,6.33-7.07,8.88-2.87,5.67-2.74,13.23.34,18.99,1.4,2.61,5.92,7.06,8.59,8.45,3.77,1.96,5.76,2.45,9.92,2.45s6.36-.54,9.92-2.53c2.83-1.59,4.02-2.69,11.24-10.44,19.3-20.7,25.91-27.58,27.04-28.11,2.5-1.18,5.72-.61,7.62,1.36,1.37,1.43,1.89,2.72,1.89,4.74,0,2.69-.62,3.5-11.39,14.99-1.4,1.5-4.56,4.91-7.02,7.59-2.46,2.68-5.69,6.17-7.19,7.75-5.78,6.11-7.27,7.94-8.35,10.19-4.03,8.44-.4,18.28,8.24,22.38,2.72,1.29,2.92,1.33,6.95,1.33,4.06,0,4.2-.02,6.85-1.34,1.49-.74,3.36-1.95,4.17-2.7s7.3-7.86,14.42-15.79c15.3-17.04,15.54-17.31,16.93-18.66,4.28-4.19,11.36-1.32,11.36,4.6,0,2.36-.85,3.72-5.66,9.05-2.34,2.6-5.48,6.08-6.97,7.74-1.49,1.66-3.68,4.08-4.87,5.38-5.32,5.81-6.42,7.2-7.59,9.57-1.83,3.72-2.29,6.97-1.5,10.71,1.53,7.3,7.25,12.79,14.56,13.99,2.14.35,3.1.33,5.53-.13,5.31-1,6.92-2.29,20.01-16.02l1.8-1.89-3.3-3.06c-1.82-1.68-3.87-3.84-4.57-4.79-6.55-8.93-7.55-20.83-2.58-30.73,2.6-5.17,7.72-10.38,12.71-12.93,3.81-1.94,9.04-3.29,12.74-3.29h2.13l-.22-2.12c-.26-2.49.34-7.18,1.35-10.49,2.64-8.67,10.14-16.36,18.82-19.3,2-.68,7.39-1.61,9.34-1.62h1.33s-.2-2.44-.2-2.44c-.34-4.09.92-10.19,2.95-14.22,3.04-6.05,7.88-10.87,13.62-13.58,3.74-1.76,6.78-2.57,10.87-2.88l3.21-.24-.07-3.07c-.3-13.62,8.61-25.46,22.03-29.28,3.55-1.01,10.16-1.09,13.99-.16,3.79.91,8.68,3.4,12.14,6.17,1.62,1.29,3.03,2.35,3.13,2.35s3.16-4.09,6.79-9.09c3.64-5,8.86-12.18,11.61-15.96,2.75-3.78,5.87-8.19,6.94-9.8,2.04-3.08,6.32-11.2,7.68-14.56.44-1.09.95-2.31,1.13-2.7.67-1.46,3.2-9.45,3.77-11.9,2.12-9.11,2.89-15.68,2.88-24.71,0-15.68-3.26-29.93-10.09-44.18-7.29-15.21-20.58-30.46-35.16-40.33-18.7-12.67-41.05-18.48-64.55-16.79m42,195.01c-2.58.96-4.41,2.2-6.53,4.46-2.16,2.29-3.1,4-3.89,7.04-.74,2.86-.72,4.81.09,7.73,1.28,4.62,1.97,5.42,12.14,14.01,3.57,3.02,6.9,5.83,7.4,6.26s2.45,2.07,4.33,3.66c1.88,1.59,4.88,4.17,6.66,5.74,6.11,5.38,8.61,6.49,14.17,6.29,3.06-.11,3.82-.27,5.97-1.29,5.98-2.83,9.66-9.16,9.15-15.77-.37-4.78-2.22-8.06-6.71-11.86-1.51-1.28-7.21-6.12-12.67-10.76-19.41-16.5-18.47-15.88-24.52-16.07-3.01-.09-4.16.02-5.6.56m-29.2,33.03c-2.89.72-5.09,1.96-7.21,4.04-3.93,3.86-5.69,8.76-4.91,13.62.5,3.11,2.05,6.42,3.9,8.36.75.79,3.3,3.05,5.67,5.04s8.36,7.06,13.31,11.29c11.05,9.43,12.33,10.16,17.98,10.16,12.52.02,20.23-14.69,13-24.79-1.44-2.01-27.76-24.62-30.52-26.23-3.12-1.81-7.56-2.4-11.22-1.49m-31.76,33.69c-3.88,1.36-6.47,3.47-8.83,7.18-1.64,2.59-2.24,5.17-2.08,8.98.13,2.92.29,3.6,1.49,6.01,1.51,3.06,1.69,3.23,13.95,13.59,4.07,3.43,8.37,7.09,9.56,8.13,7.25,6.34,9.07,7.47,13.11,8.16,6.91,1.18,13.65-2.41,16.91-9.01,1.11-2.25,1.33-3.1,1.47-5.71.34-6.5-1.28-9.4-9-15.99-20.97-17.95-23.63-20.1-25.88-20.99-2.77-1.09-8.11-1.27-10.71-.36m-28.1,32.76c-1.74.26-4.19,1.25-6.14,2.48-7.26,4.56-9.52,14.02-5.13,21.5,1.2,2.05,3.1,3.86,12.18,11.55,11.01,9.34,13.31,11.14,15.5,12.17,1.79.84,2.42.93,6.14.93,3.97,0,4.26-.06,6.63-1.22,4.49-2.19,7.9-6.5,8.92-11.27.5-2.33.19-6.97-.59-8.85-1.33-3.23-2.97-4.92-13.32-13.75-13.01-11.1-13.87-11.77-16.21-12.64-1.95-.73-6.04-1.19-7.98-.89"/>
  </g>
</svg>