<?xml version="1.0" encoding="UTF-8"?>
<svg id="Layer_2" data-name="Layer 2" xmlns="http://www.w3.org/2000/svg" viewBox="0 0 443 354.17">
  <defs>
    <style>
      .cls-1 {
        fill: #758cac;
        fill-rule: evenodd;
        stroke-width: 0px;
      }
    </style>
  </defs>
  <g id="Layer_1-2" data-name="Layer 1">
    <path class="cls-1" d="m13.22.49C7.29,1.93,2.25,6.74.52,12.64c-.47,1.6-.52,12.79-.52,120.86s.05,119.25.52,120.83c1.62,5.46,5.9,9.72,11.8,11.75,1.7.59,4.32.61,74.09.61h72.32v42.28h-2.13c-3.36,0-6.82.85-10.23,2.52-2.6,1.27-3.53,1.95-5.85,4.31-4.57,4.63-6.53,9.33-6.58,15.78-.06,8.72,4.81,16.58,12.6,20.32,5.16,2.48.64,2.32,62.61,2.21l55.46-.1,2.38-.88c3.71-1.38,5.87-2.76,8.7-5.6,4.41-4.41,6.28-8.61,6.56-14.71.2-4.44-.37-7.36-2.16-11.06-3.73-7.72-11.8-12.79-20.35-12.79h-2.13v-42.28h29.14l1.42,2.52c6,10.64,15.66,21,26.05,27.94,10.98,7.34,23.34,11.82,37.05,13.45,4.15.49,14.7.4,18.94-.16,21.04-2.79,39.9-12.95,53.11-28.6,10.56-12.51,17.05-27.25,19.19-43.55.58-4.45.67-14.34.16-19.01-1.96-18.05-9.91-35.05-22.49-48.05l-3.84-3.98v-75.97c0-54.45-.1-76.46-.36-77.7-1.3-6.2-7.15-11.91-13.56-13.24C401.18.08,346.63-.02,207.91,0,42.72.03,14.85.1,13.22.49m1.74,9.74c-1.92.59-3.84,2.22-4.59,3.87-.58,1.28-.6,4.59-.61,95.41v94.08s3.41,0,3.41,0h3.42v-86.62c0-95.07-.15-87.79,1.87-91.77,1.14-2.26,4.4-5.41,6.89-6.66,4.19-2.11-10.64-1.95,182.5-1.96,120.63,0,176.79.1,178.22.34,2.66.43,6.27,2.11,8.16,3.79,1.89,1.69,3.73,4.38,4.64,6.79l.72,1.91.1,62.94.1,62.94,3.4,2.01,3.4,2.01-.08-72.11-.08-72.11-.88-1.49c-1.01-1.72-2.88-3.08-4.88-3.54-.91-.21-67.53-.32-192.81-.31-162.95.01-191.63.08-192.88.47m16.59,16.45c-1.68.33-2.65.97-4.05,2.7l-.99,1.23-.08,86.49-.08,86.49h127.26s127.26,0,127.26,0l.93-2.68c8.52-24.66,28.86-44.3,53.88-52.01,16.71-5.15,34.9-4.87,51.15.8l3.17,1.11v-59.55c-.01-57.27-.04-59.6-.62-60.85-.69-1.5-2.05-2.86-3.45-3.48-.8-.35-32.41-.44-176.94-.47-100.73-.03-176.59.08-177.43.24m55.61,22.49c-2.5,1.27-2.74,2.04-2.87,9.06l-.11,6.05-1.68.78c-.92.43-2.93,1.6-4.46,2.6l-2.79,1.82-5.02-2.93c-5.41-3.15-6.92-3.63-8.64-2.73-.52.27-1.26.84-1.64,1.26s-3.23,5.15-6.34,10.52c-5.13,8.87-5.64,9.89-5.63,11.25.03,2.61.72,3.33,6.39,6.61l5.11,2.96v5.37s0,5.37,0,5.37l-5.11,2.93c-4.83,2.77-5.16,3.01-5.9,4.52-.7,1.41-.75,1.74-.42,2.95.42,1.56,10.81,19.73,12.06,21.08.94,1.02,2.93,1.67,4.23,1.39.48-.11,3.13-1.49,5.87-3.07l4.99-2.88,2.71,1.76c1.49.97,3.51,2.13,4.48,2.58l1.78.81.11,6.09c.12,6.76.35,7.59,2.42,8.87.96.59,1.73.63,13.43.63h12.42l1.37-1.28,1.37-1.28.1-6.45.1-6.45,2.63-1.29c1.45-.71,3.5-1.9,4.58-2.65l1.95-1.36,3.62,2.09c5.78,3.34,7.53,4.11,8.8,3.88,2.4-.45,2.98-1.2,8.88-11.37,3.1-5.34,5.79-10.35,5.99-11.13.32-1.26.27-1.59-.41-2.97-.72-1.45-1.09-1.73-5.88-4.48l-5.11-2.93v-5.37s-.01-5.37-.01-5.37l4.3-2.44c2.36-1.34,4.85-2.93,5.52-3.53,1.35-1.2,1.96-2.82,1.66-4.4-.23-1.22-10.88-19.83-12.08-21.11-1.02-1.1-2.87-1.7-4.34-1.41-.6.12-3.28,1.5-5.96,3.07l-4.87,2.86-2.88-1.86c-1.59-1.02-3.67-2.2-4.63-2.62l-1.75-.76v-6.14c-.01-5.72-.06-6.22-.71-7.28-1.39-2.26-1.94-2.34-14.76-2.35-11.18,0-11.42,0-12.84.72m6.84,14.51c0,5.17-.04,5.54-.74,6.59-.41.61-1.25,1.35-1.87,1.65-.62.3-2.81,1.36-4.87,2.34-2.18,1.05-4.54,2.48-5.66,3.43-2.52,2.13-3.85,2.75-5.45,2.53-.75-.1-3.08-1.2-5.67-2.67-2.42-1.38-4.44-2.45-4.5-2.39-.07.08-4.32,7.5-5.59,9.76-.07.12,1.87,1.36,4.31,2.76,5.59,3.22,5.87,3.57,5.69,7.27-.24,5.13-.2,10.88.09,13.1.24,1.84.19,2.41-.29,3.49-.62,1.37-1.08,1.71-6.76,5.01l-3.19,1.85.63,1.04c.34.57,1.62,2.79,2.83,4.94,1.21,2.15,2.24,3.94,2.27,3.99.03.05,1.8-.9,3.93-2.12,7.02-4.01,7.08-4.01,12.06-.21,1.57,1.2,4.1,2.75,5.63,3.45,5.06,2.32,5.68,2.68,6.42,3.8.69,1.04.74,1.44.74,6.42v5.32h11.71v-4.63c0-2.55.15-5.17.34-5.83.42-1.53,2.05-2.95,4.36-3.81,3.07-1.15,5.43-2.48,8.42-4.74,4.66-3.52,5.18-3.56,10.15-.8,1.96,1.09,4.04,2.27,4.61,2.62l1.04.64,2.34-4c1.29-2.2,2.62-4.47,2.96-5.04l.62-1.04-3.19-1.85c-7.12-4.12-7.52-4.6-7.06-8.41.36-2.95.35-9.71,0-12.95-.41-3.62.06-4.23,5.79-7.52l4.45-2.56-.7-1.18c-.39-.65-1.65-2.83-2.8-4.84-1.16-2.01-2.21-3.72-2.34-3.81-.13-.08-2.17.95-4.52,2.3-5.98,3.43-6.93,3.46-10.74.33-2.33-1.91-5.17-3.56-8.57-4.97-3.18-1.32-4.42-2.4-4.84-4.23-.16-.69-.3-3.34-.3-5.89v-4.63h-11.72v5.48m.76,19.21c-3.5,1-5.63,2.28-8.42,5.06-2.99,2.98-4.4,5.4-5.36,9.15-2.65,10.35,3.86,21.01,14.47,23.71,2.67.68,6.4.62,9.41-.15,7.71-1.97,13.28-8.2,14.53-16.27,1.47-9.48-5.05-19.17-14.54-21.61-2.67-.68-7.5-.63-10.09.11m1.3,9.93c-2.09.97-3.99,2.84-4.99,4.91-1.09,2.26-1.08,5.87.03,8.1,2.29,4.59,7.42,6.8,12.12,5.2,2.03-.69,4.69-3.13,5.64-5.17,1.18-2.53,1.09-5.93-.23-8.56-1.07-2.14-3.18-4-5.46-4.82-2-.71-5.17-.56-7.1.33m78.12,18.57c-10.75,4.7-11.35,5.4-9.11,10.77.66,1.58,1.42,3.4,1.68,4.04l.48,1.16-1.89,2.54-1.89,2.54-1.63-.2c-.9-.11-2.87-.29-4.39-.4-2.54-.18-2.85-.13-3.89.57-2.02,1.38-2.21,2.04-3.24,11.27-1.07,9.55-1.03,10.25.81,11.99,1.15,1.09,1.34,1.14,6.72,1.77,1.96.23,3.17.52,3.17.75,0,.21.51,1.44,1.14,2.75.63,1.31,1.14,2.41,1.14,2.46s-1.03,1.45-2.28,3.13c-2.64,3.53-3.14,4.79-2.63,6.68.46,1.71,1.29,2.45,8.98,8.07,6.32,4.61,6.55,4.75,8.13,4.75,2.28,0,3.29-.73,6-4.38,2.22-2.99,2.38-3.13,3.3-2.93.53.12,1.95.31,3.15.43l2.18.22,1.42,3.25c.78,1.79,1.77,3.72,2.2,4.28.9,1.19,2.69,1.89,4.11,1.61.54-.11,4.57-1.76,8.94-3.67,6.7-2.92,8.1-3.65,8.81-4.59,1.31-1.71,1.14-3.41-.73-7.62l-1.55-3.48,1.42-1.9c.78-1.04,1.64-2.21,1.91-2.58.48-.68.54-.68,4.22-.24,3.98.47,4.8.4,6.38-.55,1.74-1.05,2.03-2.09,3.06-11.2,1.07-9.44,1.03-10.08-.79-11.84-1.12-1.09-2.47-1.44-6.96-1.83-2.52-.22-2.73-.29-3.06-1.08-.19-.47-.76-1.77-1.26-2.9l-.92-2.05,2.43-3.3c2.8-3.81,3.13-4.85,2.22-7.04-.57-1.37-1.25-1.97-7.85-6.82-8.09-5.95-8.66-6.21-11.22-4.97-1.11.54-1.95,1.4-3.68,3.79l-2.25,3.1-2.6-.19c-3.59-.27-3.99-.38-4.24-1.21-.12-.4-.92-2.19-1.78-3.98-2.71-5.65-3.33-5.69-14.15-.97m3.58,8.99c-1.25.55-2.32,1.04-2.37,1.09-.05.04.41,1.23,1.03,2.64,2.15,4.9,2.06,5.57-1.22,9.2-1.3,1.44-2.94,3.67-3.64,4.94-1.35,2.46-2.59,3.74-3.97,4.09-.47.12-2.28.08-4.03-.08l-3.18-.29-.18,1.3c-.1.72-.21,2.03-.25,2.92l-.07,1.62,2.28.24c3.77.4,4.36.57,5.53,1.6.91.8,1.31,1.59,2.1,4.13.54,1.76,1.64,4.26,2.49,5.68,1.62,2.72,2.12,4.8,1.44,6.06-.22.4-1.11,1.72-1.99,2.92-.88,1.2-1.59,2.32-1.58,2.49.01.33,4.05,3.39,4.45,3.38.14,0,1.06-1.12,2.04-2.47,2.81-3.87,3.87-4.19,9.43-2.9,1.16.27,3.56.49,5.33.5,4.72.01,5.29.49,7.8,6.59.28.67.57,1.22.65,1.22.29,0,4.94-2.02,5.19-2.26.14-.13-.25-1.37-.88-2.75-1.28-2.81-1.66-4.36-1.36-5.56.11-.45,1.09-1.8,2.18-2.99,2.2-2.42,3.32-3.98,4.68-6.53,1.57-2.91,3.13-3.47,8.18-2.9l2.33.26.18-.91c.1-.5.27-1.81.38-2.92l.21-2.01-1.9-.21c-6.28-.69-6.78-1.1-8.56-6.84-.39-1.25-1.37-3.41-2.18-4.8-.81-1.39-1.55-3.1-1.65-3.81-.19-1.42.39-2.62,2.8-5.83l1.32-1.75-.72-.54c-.4-.3-1.47-1.08-2.39-1.74l-1.67-1.2-1.83,2.43c-2.93,3.9-3.97,4.32-8.22,3.37-1.75-.39-4.29-.67-6.51-.7-4.62-.08-4.94-.28-7.02-4.54-.85-1.74-1.73-3.16-1.95-3.15-.22,0-1.43.46-2.68,1.02m8.81,12.67c-2.34.55-5.43,2.32-7.3,4.2-2.12,2.12-3.4,4.3-4.1,7-2.78,10.67,6.61,21.16,17.32,19.35,9.2-1.55,15.14-10.29,12.89-18.99-1.43-5.55-5.76-10.08-10.98-11.47-1.87-.5-5.89-.54-7.83-.09m.95,10c-1.87,1.16-3.1,3.27-3.08,5.32.01,1.51,1.05,3.61,2.18,4.42,3.22,2.3,7.37,1.35,8.9-2.03,1.88-4.15-.86-8.32-5.47-8.32-.94,0-1.94.24-2.53.6m170.28,11.99c-16.73.59-31.57,6.31-44.82,17.26-11.71,9.67-20.65,24.23-24.13,39.27-1.39,6-1.77,9.57-1.76,16.59,0,7.08.4,10.76,1.81,16.75,1.98,8.43,5.76,17.01,10.6,24.07,10.92,15.94,27.03,26.82,45.45,30.69,5.36,1.13,9.31,1.51,15.41,1.51,8.36,0,15.09-1.1,23.12-3.77,26.81-8.91,46.32-33.19,49.45-61.55.51-4.59.25-15.02-.48-19.25-4.07-23.72-18.83-43.64-39.99-54.01-11-5.39-22.88-7.97-34.67-7.56m-10.73,20.53c-.66.36-1.43,1.18-1.87,2-.69,1.3-.74,1.79-.74,7.2v5.8l-2.36,1.18c-1.3.65-3.28,1.82-4.41,2.61s-2.11,1.42-2.18,1.42-2.43-1.32-5.24-2.93c-4.44-2.54-5.31-2.93-6.64-2.93-2.77,0-3.13.44-9.56,11.56-6.17,10.67-6.62,11.77-5.63,13.68.75,1.45,1.64,2.13,6.59,5l4.57,2.65v5.35s-.03,5.35-.03,5.35l-5.04,2.88c-4.17,2.38-5.17,3.1-5.79,4.14-1.41,2.4-1.17,3.04,5.36,14.28,6.41,11.04,6.83,11.55,9.46,11.55,1.23,0,2.24-.45,6.6-2.93,2.84-1.61,5.23-2.93,5.32-2.93s1.08.64,2.21,1.42,3.1,1.95,4.39,2.6l2.34,1.17.1,6.16c.11,6.74.19,7.02,2.34,8.63.86.64,1.36.67,12.89.76,13.42.1,13.68.07,15.19-2.17.71-1.05.74-1.39.74-7.23v-6.13l2.68-1.35c1.48-.74,3.52-1.93,4.55-2.65l1.86-1.3,4.97,2.85c3.68,2.11,5.35,2.89,6.46,3.01,1.65.17,2.94-.33,4.08-1.59.38-.42,3.15-5.01,6.15-10.2,7.74-13.37,7.75-13.25-.83-18.18l-5.03-2.9v-10.52l5.04-2.93c5.98-3.48,6.64-4.19,6.42-6.94-.12-1.61-.68-2.72-5.58-11.22-3.42-5.92-5.91-9.89-6.71-10.65-1.14-1.1-1.44-1.22-2.99-1.22s-2.16.25-6.83,2.95l-5.12,2.95-1.88-1.28c-1.03-.7-3.09-1.88-4.56-2.62l-2.68-1.35v-6.13c0-5.83-.04-6.18-.74-7.23-1.48-2.22-1.63-2.24-14.88-2.24-10.95,0-11.97.05-13,.6m7.15,14.38c0,3.95-.12,5.44-.48,6.14-.5.97-2.28,2.62-2.81,2.62s-5.61,2.39-7.28,3.44c-.9.56-2.27,1.57-3.06,2.23-3.58,2.99-4.98,2.92-10.92-.54-2.33-1.36-4.25-2.44-4.27-2.42-.46.61-5.69,10.04-5.61,10.11.06.05,2,1.18,4.31,2.5,2.61,1.5,4.51,2.82,5.04,3.52.96,1.26,1.03,2.23.51,7.51-.18,1.84-.19,4.28-.02,6.02.49,5.03.43,6.42-.34,7.49-.39.54-2.58,2.08-5.03,3.53-2.39,1.41-4.4,2.61-4.46,2.66-.06.05,1.18,2.35,2.76,5.09l2.88,5,4.08-2.34c4.86-2.79,6.28-3.3,7.84-2.77.6.2,2.2,1.26,3.54,2.34,1.45,1.17,3.82,2.62,5.85,3.59,7.9,3.74,7.48,3.15,7.48,10.61v5.29h11.71v-5.05c0-6.93.44-7.83,4.66-9.41,3.4-1.28,4.98-2.18,8.51-4.83,4.83-3.63,5.02-3.62,11.82.32,3.08,1.79,3.75,2.07,4.09,1.69.6-.66,5.39-8.95,5.39-9.33,0-.18-1.72-1.31-3.82-2.52-6.07-3.49-6.5-4.06-6.07-8.1.35-3.39.35-9.11,0-12.26-.15-1.37-.19-2.84-.08-3.28.32-1.29,1.7-2.41,5.97-4.86,2.2-1.27,4.01-2.44,4.01-2.6s-1.26-2.46-2.79-5.12l-2.79-4.84-4.44,2.57c-3.99,2.31-4.61,2.57-6.13,2.57s-1.89-.15-4.31-1.97c-3.55-2.67-5.72-3.94-8.89-5.2-4.79-1.9-5.12-2.51-5.12-9.57v-5.05h-11.71v5.22m2.36,18.86c-5.18.93-10.64,4.76-13.33,9.36-3.3,5.64-3.52,12.84-.56,18.84,2.21,4.49,7.04,8.47,12.09,9.95,8,2.35,17.01-1.01,21.72-8.09,7.14-10.76,1.83-25.6-10.54-29.44-2.45-.76-6.94-1.06-9.37-.62M9.77,232.29c0,17.68.05,19.03.6,20.25.76,1.66,2.12,3.02,3.78,3.78,1.26.58,6,.6,134.74.6,73.39,0,133.44-.03,133.44-.07,0-.04-.5-1.58-1.12-3.4-1.26-3.73-2.53-9.16-3.33-14.15-.76-4.79-.77-17.05-.01-21.81.31-1.93.56-3.65.56-3.82,0-.2-47.79-.32-134.33-.32H9.76v18.95m27.85-13.55c-5.9,1.43-10.82,6.44-12.4,12.64-1,3.94-.34,8.76,1.66,12.1,5.99,10,18.88,11.77,26.83,3.69,3.84-3.9,5.63-9.07,4.89-14.14-1.44-9.96-11.26-16.65-20.99-14.29m320.62-.18c-4.55.91-7.74,4.86-7.74,9.59,0,7.31,7.39,11.88,13.97,8.64,4.84-2.38,6.75-7.92,4.44-12.86-1.81-3.88-6.46-6.21-10.67-5.37m-319.06,9.95c-2.55.91-4.66,3.81-4.68,6.43-.03,4.83,4.14,8.38,8.64,7.38,4.34-.97,6.71-4.84,5.51-8.98-1.24-4.26-5.27-6.32-9.47-4.83m129.32,59.33v21.14h79.36v-42.28h-79.36v21.14m-14.86,31.39c-2.49.54-4.35,1.61-6.34,3.64-6.59,6.72-3.66,18.03,5.44,21.03,1.5.49,6.12.53,55.95.46l54.31-.08,2.11-1c2.79-1.33,4.99-3.51,6.28-6.24.95-2.01,1.04-2.46,1.04-5.45s-.08-3.42-1.06-5.42c-1.82-3.7-5.47-6.46-9.41-7.1-1.14-.19-22.52-.3-54.09-.29-42.48.02-52.58.11-54.22.46"/>
  </g>
</svg>