<?xml version="1.0" encoding="UTF-8"?>
<svg id="Layer_2" data-name="Layer 2" xmlns="http://www.w3.org/2000/svg" viewBox="0 0 459.76 410.46">
  <defs>
    <style>
      .cls-1 {
        fill: #1584a4;
        fill-rule: evenodd;
        stroke-width: 0px;
      }
    </style>
  </defs>
  <g id="Layer_1-2" data-name="Layer 1">
    <path class="cls-1" d="m225.58.08c-11.01,1.15-18.89,4.53-25.33,10.88-5.72,5.63-9.36,13.3-11.04,23.25-.52,3.1-.52,13.37,0,16.75,2.47,15.88,9.65,28.78,20.29,36.48.66.47.65.49-.17.66-.46.1-2.25.34-3.98.54-5.19.61-17.38,3-21.54,4.22-.42.12-.85-.44-1.75-2.32-2.79-5.81-7.85-11.53-13.05-14.78-13.12-8.18-34.47-8.13-47.26.1-5.67,3.65-9.79,8.38-12.88,14.8-3.42,7.11-4.57,13.42-4.28,23.44.21,7.21.79,10.98,2.56,16.75,1.35,4.4,4.33,10.71,6.87,14.53,2.21,3.31,6.89,8.42,9.75,10.62l1.92,1.48-1.31.24c-.72.13-3.88.63-7.01,1.11-9.57,1.47-19.01,3.72-25.12,6.01-11,4.11-18.82,9.65-23.59,16.72-2.19,3.24-3.22,5.5-4.38,9.54l-.9,3.15-3.82,2.34c-25.7,15.71-43.6,34.24-52.77,54.61-3.13,6.96-5.56,15.58-6.47,23.01-.5,4.07-.42,14.32.14,18.26,3.49,24.5,18.23,46.87,43.42,65.9,18.46,13.94,42.43,25.99,68.48,34.42,8.34,2.7,9,2.9,15.41,4.65,41.35,11.3,88.13,15.36,135.16,11.74,71.99-5.54,135.68-30.26,170-65.99,24.4-25.41,32.5-55.13,22.91-84.15-7.74-23.41-27.52-45.51-56.08-62.64l-3.7-2.22-.54-2.29c-2.74-11.67-12.71-21.36-27.78-26.99-6.17-2.3-17.24-4.85-27.26-6.26-2.76-.39-5.4-.79-5.86-.88-.82-.17-.82-.18-.17-.66,7.69-5.58,14.16-14.72,17.53-24.75,2.63-7.84,3.72-16.75,3.06-25.04-1.44-18.2-11.05-31.06-26.69-35.71-4.75-1.41-8.12-1.84-14.34-1.84-6.05,0-9.21.42-14,1.84-9.95,2.96-17.36,9.1-22.13,18.34-1.23,2.38-1.72,3.05-2.16,2.91-3.63-1.12-18.63-3.97-23.17-4.4-1.38-.13-2.63-.3-2.77-.38-.14-.08.94-1.11,2.41-2.3,8.9-7.19,15.46-19.16,17.83-32.55,1-5.67,1.08-15.3.16-20.36-2.4-13.22-8.94-22.73-19.33-28.13-3.62-1.88-7.93-3.31-12.03-4.01-3.21-.54-10.75-.91-13.23-.66m.33,14.9c-5.96.55-12.22,3.31-15.62,6.89-4.57,4.82-6.7,11.4-6.7,20.71,0,9.43,2.41,18.11,6.93,24.95,2.04,3.08,4.56,5.8,6.96,7.5,4.28,3.03,7.73,4.22,12.28,4.22,8.64,0,16.4-5.57,21.38-15.35,4.55-8.93,6.13-20.23,4.19-29.85-2.05-10.14-8.55-16.7-18.39-18.57-3.55-.67-7.37-.85-11.03-.51m-83.57,69.49c-.46.08-1.88.31-3.16.52-9.15,1.49-15.59,6.88-18.29,15.3-1.29,4.02-1.65,6.61-1.65,11.96-.02,17.56,8.58,32.29,21.04,36.02,3.41,1.02,8.53.82,11.9-.47,6.74-2.59,12.92-9.28,16.2-17.54,4.36-10.98,4.55-24.62.46-33.06-3.85-7.94-11.41-12.33-21.94-12.74-2.05-.08-4.1-.08-4.56,0m167.44.14c-6.24.79-10.9,2.91-14.72,6.71-5.29,5.26-7.81,13.46-7.18,23.45,1.06,17.04,9.75,30.51,21.72,33.7,2.26.6,6.94.59,9.27-.03,6.18-1.64,12.09-6.64,15.98-13.53,4.13-7.31,6.35-18.25,5.46-26.92-.76-7.4-2.94-12.56-7.04-16.67-2.96-2.96-6.5-4.88-11.06-5.99-3.25-.79-9.16-1.13-12.44-.71m-90.57,17.46c-5.74.36-9.95.83-16.22,1.85-4.26.69-13.66,2.67-15.8,3.33-.46.14-.57,1.11-.74,6.61-.16,5.03-.4,7.36-1.07,10.63-2.74,13.23-8.94,24.08-17.83,31.19l-2.43,1.94,1.09.17c.6.1,3.73.57,6.95,1.05,3.22.48,8.55,1.47,11.85,2.18,3.29.72,6.09,1.24,6.22,1.16.13-.08.65-1.2,1.16-2.5,1.13-2.89,3.98-7.48,6.32-10.18,9.57-11.07,28.59-15.51,45.27-10.55,7.64,2.27,14.1,6.65,18.64,12.64,1.65,2.18,5.34,9.03,5.34,9.92,0,.25.14.54.3.64.17.1,2.99-.41,6.28-1.14,3.29-.73,8.54-1.71,11.67-2.18s6.25-.97,6.93-1.1l1.23-.24-2.74-2.2c-8.28-6.65-14.82-18.14-17.28-30.38-.9-4.48-1.48-11.06-1.28-14.54l.17-2.9-1.38-.36c-15.92-4.19-35.63-6.08-52.63-5.03m6.36,49.89c-5.12.67-8.67,1.93-12.16,4.3-5.73,3.89-9.01,10.5-9.73,19.59-.77,9.73,1.7,20.71,6.26,27.83,4,6.25,9.39,10.56,15.13,12.08,2.4.64,7.05.63,9.53-.01,10.03-2.61,18.31-13.63,20.85-27.72.77-4.28.75-13.19-.03-16.8-1.67-7.69-5.6-13.28-11.5-16.36-4.99-2.61-12.06-3.73-18.33-2.9m-88.93,19.64c-12.92.91-23.1,2.5-33.11,5.17-14.2,3.8-22.81,10.14-25.02,18.43-.4,1.5-.48,7.1-.48,33.54v31.74s9.54,0,9.54,0h9.55v-22.86c0-14.28.13-23.32.34-24.07.89-3.19,3.66-5.35,6.89-5.36,2.4,0,3.36.33,5.01,1.78,2.61,2.29,2.48.94,2.49,27.16v23.36h36.08l1.09-3.33c2.5-7.64,7.63-14.04,15.1-18.85,3.11-2,8.49-4.68,11.96-5.94l2.61-.95.17-8.84c.16-8.66.18-8.87,1.02-10.5,2.7-5.25,10.32-5.22,13.05.04.8,1.55.84,1.92.95,8.53l.11,6.91,2.16-.45c1.19-.25,4.74-.83,7.89-1.28,3.15-.46,5.78-.89,5.85-.95.07-.07-.6-.63-1.47-1.26-4.52-3.24-10.15-10.26-13.29-16.56-3.96-7.94-5.9-15.67-6.42-25.55l-.23-4.44-1.71-.49c-6.23-1.8-21.8-4.22-31.19-4.85-4.61-.31-15.3-.38-18.93-.12m168.49,0c-12.15.85-24.38,2.76-32.86,5.14l-1.2.34-.2,4.6c-.53,11.91-4.25,23.49-10.33,32.06-2.37,3.34-7.39,8.6-9.59,10.05-.79.52-1.36,1.01-1.28,1.09.08.08,3.06.58,6.62,1.1,3.56.52,7.1,1.09,7.88,1.27.77.17,1.49.24,1.59.13s.19-3.21.19-6.91c0-7.62.22-8.53,2.49-10.52,1.64-1.44,2.61-1.79,4.94-1.78,2.9.01,5.02,1.3,6.41,3.89.68,1.26.73,1.87.82,10.26l.1,8.92,2.91,1.08c14.31,5.33,23.98,14.41,27.22,25.56l.75,2.57h36.07v-22.99c0-16.26.11-23.36.38-24.27.91-3.05,3.64-5,6.99-5,2.39,0,4.15.77,5.54,2.41,1.89,2.25,1.83,1.36,1.83,26.56v23.3l9.63-.09,9.63-.09.1-30.15c.06-19.59-.03-31.09-.25-32.83-.54-4.1-2.06-7-5.46-10.37-3.25-3.22-6.64-5.41-11.57-7.45-8.45-3.5-25.61-6.83-40.09-7.79-4.87-.32-15.52-.39-19.27-.13m-244.36,41.74c-25.48,17.05-41.03,37.17-45.1,58.36-1.29,6.72-1.19,16.39.25,23.45,1.81,8.86,6.96,19.81,13.31,28.3,7.7,10.29,19.42,20.86,32.87,29.65,34.24,22.38,82.61,37.15,135.34,41.34,20.75,1.65,45.63,1.58,66.66-.18,76.83-6.42,142.88-35.57,168.83-74.51,6.29-9.43,10.39-19.8,11.53-29.14.5-4.1.51-11.73.01-15.58-1.53-11.91-7-23.92-16.32-35.81-2.76-3.52-13.8-14.36-17.94-17.62-3.78-2.97-10.9-8.14-12.63-9.15l-1.01-.59v28.45c0,31.4.08,30.21-2.11,32.51-.59.62-1.68,1.41-2.41,1.75-1.28.59-3.07.62-40.61.63h-39.27s-.09,31.1-.09,31.1l-.09,31.09-1.01,1.65c-.76,1.24-1.46,1.88-2.82,2.57l-1.82.92h-76.49c-84.98,0-77.71.21-80.25-2.27-2.33-2.27-2.25-1.04-2.25-34.8v-30.25h-38.94c-26.14,0-39.36-.12-40.2-.36-1.6-.44-3.42-2.03-4.37-3.8l-.73-1.37-.17-28.85-.17-28.85-2.01,1.34m157.6,25.75c-9.48.71-20.6,2.48-29.12,4.64-14.57,3.68-23.34,9.71-26.21,18.03l-.77,2.24v63.64l9.63.09,9.63.09v-23c0-16.26.11-23.37.38-24.27,1.62-5.4,8.89-6.9,12.52-2.58,1.89,2.25,1.83,1.36,1.83,26.55v23.29h66.98l.09-23.53.09-23.53.84-1.51c.98-1.75,3.36-3.49,5.2-3.79,3.08-.5,6.6,1.4,7.9,4.27.58,1.28.62,2.75.62,24.72v23.36h19.44v-31.27c0-30.07-.03-31.36-.66-33.86-2.22-8.66-11.01-15.07-25.77-18.77-16.86-4.23-36.52-6.03-52.62-4.82"/>
  </g>
</svg>