<?xml version="1.0" encoding="UTF-8"?>
<svg id="Layer_2" data-name="Layer 2" xmlns="http://www.w3.org/2000/svg" viewBox="0 0 443.63 443.63">
  <defs>
    <style>
      .cls-1 {
        fill: #a49485;
        fill-rule: evenodd;
        stroke-width: 0px;
      }
    </style>
  </defs>
  <g id="Layer_1-2" data-name="Layer 1">
    <path class="cls-1" d="m57.72.73c-4.18.6-10.35,2.02-12.63,2.91-.48.19-1.63.64-2.54,1C22.98,12.35,8.32,28.38,2.6,48.33c-9.43,32.89,7.51,67.25,39.54,80.21,7.62,3.08,15.2,4.47,24.46,4.47,7.58,0,11.8-.55,17.99-2.34,20.08-5.8,35.22-19.45,43.78-39.46,2.09-4.88,3.81-12.42,4.51-19.71.41-4.26.39-5.7-.15-10.92-1.33-12.83-5.33-23.34-12.78-33.58-2.6-3.57-10.18-11.15-13.75-13.75-9.76-7.11-19.92-11.13-32.07-12.68-5.67-.73-10.51-.68-16.4.16m227.6.11c-.9.45-2.15,1.46-2.78,2.24l-1.13,1.42-.19,34.66-.19,34.66-4.81.2c-5.33.22-6.34.55-8.24,2.72-1.72,1.95-2.08,4.32-1.42,9.3,1.68,12.7,9.43,23.39,20.86,28.76,3.62,1.7,5.72,2.36,9.82,3.08,4.5.79,111.1.8,115.52,0,13.19-2.36,23.53-10.81,28.45-23.25,1.51-3.82,2.53-9.21,2.38-12.67-.11-2.59-.26-3.15-1.23-4.51-1.92-2.69-3.33-3.23-8.79-3.39l-4.72-.13V5.99l-1.03-1.98c-.86-1.64-1.38-2.16-3.05-3l-2.02-1.02h-67.9s-67.9.02-67.9.02l-1.64.82M61.28,15.18c-7.04.62-15.23,3.33-21.44,7.1-8.49,5.14-15.99,13.5-20.18,22.49-9.5,20.37-4.79,44.32,11.74,59.75,4.7,4.39,12.82,9.33,18.19,11.07,8.16,2.64,16.3,3.4,24.24,2.27,11.73-1.68,22.13-7.09,30.3-15.78,10.19-10.82,15.02-24.61,13.89-39.65-1.86-24.91-21.64-44.89-46.79-47.26-4.45-.42-5.1-.42-9.95.01m234.84-.09c-.37.23-.45,6.38-.37,29.51l.09,29.21,59.12.09,59.12.09-.09-29.51-.09-29.51-58.65-.09c-32.26-.05-58.86.05-59.12.21m-77.06,14.38v7.4l6.89.26c3.79.14,6.99.16,7.12.03.36-.36,1.15-14.01.83-14.34-.15-.16-3.55-.39-7.56-.52l-7.28-.23v7.4m-20.72-5.76c-1.12.18-3.78.59-5.92.91s-3.92.63-3.97.67c-.05.05.24,1.99.65,4.32.4,2.33.92,5.45,1.15,6.95.26,1.66.62,2.79.94,2.91.28.11,2.22-.06,4.3-.38,2.08-.32,4.7-.68,5.82-.8,3.57-.39,3.53-.37,3.41-2.33-.06-.96-.35-4.05-.65-6.88-.3-2.82-.54-5.28-.54-5.46,0-.39-2.42-.35-5.18.09m50.89,2.64c-.14,1.07-.47,3.36-.75,5.09-.27,1.73-.61,4.09-.74,5.24l-.24,2.1,1.97.39c1.08.22,2.96.56,4.19.77s3.39.61,4.81.9c1.42.29,2.7.42,2.84.28.13-.13.61-1.91,1.05-3.95.7-3.2,1.41-6.33,2.11-9.33.22-.92.6-.79-5.63-1.97-2.24-.43-4.87-.93-5.85-1.12-3.34-.65-3.49-.59-3.77,1.59m-79.01,2.93c-7.95,2.47-10.62,3.34-11.05,3.61-.38.24-.04,1.6,1.62,6.36,1.16,3.33,2.19,6.35,2.3,6.71.26.88.85.82,4.73-.43,3.98-1.28,6.67-2.09,8.05-2.41.56-.13,1.02-.42,1.02-.65s-.52-2.35-1.15-4.71c-.63-2.36-1.43-5.37-1.78-6.68-.35-1.31-.79-2.42-.98-2.47-.19-.05-1.43.25-2.75.66m177.43,1.14c-.11.46-.16,7.08-.1,14.71l.1,13.88,7.31.1,7.31.1v-29.62h-7.21c-7.17,0-7.21,0-7.41.83m-295.68,7.05c-.1.27-.14,9.14-.08,19.71l.11,19.22.88,1.41c.48.78,1.55,1.86,2.38,2.41l1.5.99,16.04.11,16.04.11-.1-7.32-.1-7.32-11-.1-11-.1-.1-14.7-.1-14.7-7.13-.1c-5.67-.08-7.17,0-7.32.39m266.35-.17c-.36.23-.45,2.68-.37,11l.1,10.71,7.31.1,7.31.1v-22.22h-6.94c-3.82,0-7.15.15-7.41.31m59-.07c-.14.14-.25,5.14-.25,11.11v10.85h14.81l-.1-11.01-.1-11.01-7.05-.1c-3.88-.06-7.17.01-7.31.15m-240.15,4.72c-3.42,1.7-6.31,3.18-6.43,3.3s.93,2.35,2.33,4.95c1.4,2.6,2.88,5.38,3.28,6.16.4.79.92,1.5,1.15,1.59.23.09,2.56-.91,5.18-2.22,2.62-1.31,5.38-2.67,6.13-3.01,1.04-.48,1.3-.77,1.09-1.24-.15-.34-.56-1.28-.91-2.1-3.4-7.84-4.63-10.37-5.09-10.44-.29-.04-3.33,1.31-6.74,3m145.16,47.02c0,.48,1.43,3.21,2.65,5.04,2.47,3.73,6.16,6.56,11,8.45l2.45.95,54.77.1c37.21.07,55.58-.02,57.31-.29,4.66-.72,9.99-3.79,13.17-7.59,1.48-1.77,3.72-5.66,3.72-6.47,0-.26-23.08-.38-72.53-.38-39.89,0-72.53.08-72.53.17m105.47,44.27c-3.35,1.63-6.17,3.04-6.25,3.13-.09.09.85,2.45,2.08,5.25,1.23,2.8,2.46,5.63,2.74,6.3.28.66.71,1.2.95,1.2s3.29-1.11,6.76-2.46c4.71-1.84,6.3-2.62,6.3-3.09,0-.59-1.61-4.44-4.44-10.63-.68-1.48-1.41-2.68-1.63-2.67-.22,0-3.15,1.35-6.5,2.99m-259.96.66c-9.21,2.3-16.07,10.29-16.72,19.46-.2,2.87-.09,3.77,1.72,13.32.19,1.02.69,3.77,1.11,6.11s.92,5.09,1.11,6.11.69,3.77,1.11,6.11.92,5.09,1.11,6.11.69,3.77,1.11,6.11.92,5.09,1.11,6.11.69,3.77,1.11,6.11c.42,2.34.92,5.09,1.11,6.11.19,1.02.69,3.77,1.12,6.11,1.06,5.89,1.75,8.29,3.04,10.69,2.25,4.19,5.68,7.45,10.1,9.6,2.25,1.1,3.73,1.44,12.95,3.03,4.11.71,5.87,1.03,12.95,2.38,1.42.27,4.17.78,6.11,1.14,1.93.35,4.85.91,6.48,1.24l2.96.6.09,67.69c.05,37.23-.03,67.81-.19,67.96-.3.29-2.35-.19-7.3-1.7-1.69-.52-3.4-.94-3.79-.94-.6,0-1.08,1.09-2.98,6.74-1.24,3.71-2.21,6.8-2.14,6.87.12.12,6.99,2.2,11.96,3.62,1.27.36,2.4.58,2.5.48.1-.1.49-1.4.87-2.88.44-1.74.77-2.47.92-2.07.13.34.24,6.08.24,12.76,0,12.87.15,14.51,1.71,18.44,3.3,8.3,10.55,14.31,19.3,16.01,3.19.62,9.63.26,12.32-.69,3.38-1.2,6.12-2.67,8.48-4.57,1.22-.98,2.3-1.79,2.4-1.79s1.18.81,2.4,1.79c4.37,3.52,8.92,5.23,14.62,5.5,4.62.22,7.21-.16,10.82-1.6,7.37-2.93,12.23-8.09,15.38-16.33l.81-2.12.19-86.59.19-86.59,2.41-.45c1.32-.25,5.15-.95,8.51-1.56,3.36-.61,8.94-1.63,12.4-2.26,3.46-.63,7.37-1.31,8.7-1.52,5.34-.82,8.44-1.59,10.6-2.64,4.65-2.26,8.8-6.57,10.74-11.17.48-1.15,5.29-18.24,10.67-37.99,7.77-28.47,9.8-36.37,9.8-38.14,0-2.78-.81-5.99-2.32-9.15-1.59-3.34-6.52-8.27-9.89-9.88-7.75-3.72-16.29-2.91-23.2,2.2-4.93,3.65-7.55,8.39-8.93,16.16-.33,1.87-.94,4.12-3.5,12.95-.5,1.73-1,3.48-1.11,3.89-.11.41-.61,2.16-1.11,3.89-.5,1.73-1,3.48-1.11,3.89-.11.41-.63,2.24-1.16,4.07-.53,1.83-1.21,4.16-1.5,5.18-2.7,9.34-2.92,9.76-5.91,11.14-1.87.87-1.97.88-15.29.88-7.38,0-13.41-.12-13.41-.28s.39-.86.87-1.57c8.61-12.69,8.23-29.84-.91-42.22-11.74-15.89-33.74-19.78-50.28-8.88-2.79,1.84-7.03,5.93-9.21,8.88-9.15,12.42-9.53,29.53-.92,42.22.48.71.87,1.42.87,1.57s-5.7.28-12.67.28c-11.53,0-12.81-.07-14.18-.69-1.96-.89-3.71-3.05-4.2-5.18-.33-1.45-3.83-25.62-5.76-39.81-.7-5.16-2.02-8.7-4.47-12.03-5.12-6.95-14.47-10.29-22.91-8.18m2.41,14.69c-1.7.74-2.87,1.86-3.78,3.64-.92,1.8-.87,2.33,1.38,14.27.33,1.73.82,4.48,1.1,6.11.42,2.45,1.74,9.75,2.6,14.43.11.61.61,3.36,1.11,6.11.5,2.75,1,5.5,1.11,6.11.11.61.61,3.36,1.11,6.11,3.71,20.41,3.58,19.88,5.33,21.74,1.23,1.3,2.56,1.83,5.76,2.31,1.63.24,4.13.66,5.55.94,1.42.28,4.51.85,6.85,1.28s5,.93,5.92,1.12,3.58.69,5.92,1.12,5.42,1,6.85,1.28,4.17.79,6.11,1.15c1.93.36,4.02.86,4.64,1.12,1.34.55,2.96,2.11,3.81,3.65.56,1.03.63,8.2.8,90.67l.19,89.55.81,1.52c1.33,2.48,2.59,3.73,4.99,4.93,4.96,2.48,10.91.98,14.01-3.53,2.29-3.33,2.2-1,2.2-55.92v-50.06h14.43v50.06c0,54.92-.09,52.59,2.2,55.92,2.14,3.11,5.21,4.66,9.22,4.66,4.25,0,7.67-2.12,9.78-6.06l.81-1.52.19-89.55c.17-82.91.23-89.63.81-90.68.89-1.62,2.68-3.27,4.09-3.77,1.07-.38,4.86-1.11,14.9-2.89,2.78-.49,4.23-.76,12.03-2.22,4.75-.89,8.2-1.49,13.51-2.37,2.65-.44,5.25-.96,5.78-1.17,1.38-.55,3.14-2.49,3.8-4.22.31-.81,4.75-16.85,9.86-35.63,6.79-24.95,9.23-34.44,9.06-35.23-.64-2.93-4.04-5.57-7.16-5.55-1.72.01-4.03,1.07-5.32,2.45-1.15,1.22-2.14,3.76-2.14,5.46,0,.64-.18,1.74-.4,2.45-.22.71-.88,3-1.48,5.09-.6,2.09-1.58,5.54-2.19,7.68s-1.61,5.63-2.22,7.77c-1.23,4.29-2.74,9.62-4.26,14.99-1.49,5.27-2.67,8.24-4.21,10.62-2.66,4.1-7.52,7.71-12.44,9.23-2.12.66-4.81.69-60.69.69s-58.55-.03-60.5-.69c-6.3-2.15-11.18-6.25-13.66-11.48-1.65-3.47-2.06-5.04-2.84-10.71-.31-2.27-.79-5.71-1.07-7.65s-.78-5.43-1.11-7.77-.83-5.84-1.11-7.77c-.54-3.77-1.48-10.49-1.89-13.51-.3-2.23-.85-3.37-2.24-4.7-2.16-2.05-5.32-2.67-7.89-1.56m-90.05,2.84c-1.4,4.04-3.64,11.44-3.5,11.53.16.11,13.36,3.65,13.76,3.69.18.02.66-1.05,1.08-2.37.41-1.32,1.38-4.28,2.15-6.57,1.28-3.79,1.35-4.19.77-4.49-.65-.34-11.15-4.24-12.47-4.63-.65-.19-.87.17-1.8,2.83m176.27,4.69c-6.75,1.88-11.55,5.75-14.41,11.6-1.82,3.73-2.36,6.52-2.14,10.99.22,4.53,1.09,7.41,3.22,10.63,3.44,5.2,7.66,8.23,13.61,9.75,11.48,2.94,23.55-4.39,26.54-16.11.66-2.58.73-7.48.16-10.27-.54-2.62-2.56-6.81-4.42-9.15-5.08-6.43-14.75-9.62-22.56-7.45m186.69,3.17c-.81.27-3.69,1.19-6.38,2.03-2.7.84-4.9,1.6-4.9,1.67,0,.36,3.39,13.32,3.52,13.44.08.08,1.32-.12,2.75-.45,1.43-.33,3.82-.86,5.29-1.17,4.18-.9,5.83-1.35,6.02-1.66.18-.29-2.46-11.05-3.24-13.22-.48-1.32-.83-1.4-3.06-.65m-370.03,19.04c-.31.51-1.17,5.53-1.82,10.69-.35,2.74-.37,3.87-.08,3.96.45.15,7.92,1.09,11.75,1.48l2.47.25.25-2.17c.14-1.19.57-4.08.95-6.42s.7-4.52.7-4.85c0-.48-1.23-.83-6.2-1.79-3.41-.66-6.55-1.28-6.99-1.38-.44-.1-.91,0-1.05.23m375.03,10.78c-1.12.17-3.83.55-6.03.84-2.2.29-4.09.62-4.19.73-.11.11.07,2.48.39,5.27.32,2.79.59,5.79.59,6.67s.16,1.69.35,1.81c.42.26,14.08-.41,14.38-.71.18-.18-.02-3-.93-12.88-.19-2.11-.21-2.13-1.35-2.08-.64.02-2.07.18-3.19.35M29.6,215.44c0,3.71.1,7.12.22,7.56.2.75.39.8,2.68.65,1.35-.09,4.58-.26,7.18-.38l4.72-.22v-6.95c0-6.89,0-6.95-.83-7.17-.46-.12-3.79-.23-7.4-.23h-6.57s0,6.75,0,6.75m369.52,7.59c-.14,2.19-.35,5.33-.47,6.99l-.22,3.01,2.36.24c1.3.13,3.69.39,5.32.58,7.11.82,6.77.81,6.99.11.29-.95.97-14.23.74-14.59-.1-.17-3.41-.31-7.33-.31h-7.14l-.24,3.98m-358.8,14.9c-1.12.15-3.53.48-5.37.71s-3.44.55-3.57.69c-.35.37,1.9,14.24,2.39,14.74.11.11,2.16-.23,4.57-.74,2.41-.52,5.4-1.13,6.64-1.36,1.24-.23,2.45-.54,2.69-.69.32-.2.25-1.25-.29-4.13-.39-2.12-.92-5.15-1.17-6.73l-.45-2.87-1.71.05c-.94.03-2.62.18-3.74.33m356.09,9.72c-.55.75-2.09,9.16-1.73,9.46.57.48,13.4,3.46,13.82,3.21.22-.13.39-.5.39-.82s.32-1.93.71-3.59c.39-1.66.82-3.7.95-4.54l.24-1.53-1.78-.4c-1.54-.35-8.34-1.6-11.28-2.08-.54-.09-1.13.04-1.31.28m-347.76,18.2c-1.54.51-3.19,1.01-8.05,2.45-2.14.63-2.87,1.01-2.87,1.48,0,.72,4.24,13.21,4.61,13.58.42.42,13.52-4.58,13.52-5.16,0-.19-.95-3.16-2.1-6.61-2.32-6.93-2.13-6.72-5.11-5.73m302.32,16.12c-9.34,1.4-15.77,3.38-24.05,7.39-8.84,4.28-15.96,9.47-22.94,16.7-11.77,12.19-18.76,25.94-21.89,43.06-.98,5.32-.98,21.32,0,26.61,3.3,17.95,11.39,33.15,24.11,45.29,12.27,11.71,26.29,18.73,43.48,21.77,6.02,1.06,20.05.98,26.09-.15,8.78-1.64,15.33-3.79,22.76-7.47,16.24-8.04,29.63-21.8,37.51-38.54,3.37-7.16,5.26-13.35,6.78-22.21.93-5.41.93-18.56,0-23.97-1.62-9.43-3.59-15.64-7.46-23.53-12.23-24.96-34.93-41.26-62.9-45.14-5.5-.76-15.72-.67-21.49.19M4.25,296.72c-1.79.83-2.92,2-3.68,3.83C.06,301.77,0,309.39,0,370.11v68.19s.83,1.45.83,1.45c.45.79,1.47,1.96,2.25,2.59l1.42,1.15h109.03l1.57-1.11c.86-.61,1.92-1.78,2.34-2.59l.77-1.48v-53.66q0-53.61-.77-55.14c-.6-1.16-4.86-4.77-19.8-16.74-10.47-8.39-19.71-15.6-20.53-16-1.47-.73-2.18-.74-36.45-.74-33.18,0-35.02.04-36.42.69m349.88-.28c-12.6,1.45-25.1,7.04-35.27,15.79-19.05,16.37-27.17,42.29-20.93,66.83,1.94,7.64,6.17,16.51,10.85,22.78l1.5,2.01.08-2.2c.16-4.22.93-10.35,1.64-13.11.98-3.8,1.66-5.59,3.49-9.16,4.48-8.73,11.06-15.14,20.41-19.88,1.48-.75,2.68-1.49,2.68-1.65s-.31-.69-.69-1.18c-.38-.49-1.19-1.88-1.8-3.1-2.78-5.57-3.86-11.42-3.08-16.71,1.84-12.48,9.51-21.38,21.66-25.15,3.42-1.06,12.39-.98,15.88.15,12.24,3.96,20.38,14.08,21.17,26.3.43,6.69-1.47,13.87-4.9,18.44-.49.65-.88,1.26-.88,1.36s1.41.86,3.14,1.7c15.48,7.49,24.99,22.86,24.99,40.38,0,1.75.11,3.29.23,3.42.47.47,5.23-6.65,7.69-11.51,9.44-18.66,9.08-42.04-.93-60.67-3.55-6.61-7.14-11.31-12.78-16.74-10.71-10.31-23.41-16.33-38.24-18.12-3.65-.44-11.93-.42-15.92.04M14.8,369.84v59.02h88.81v-92.38l-16-12.82-16-12.82-28.4-.02-28.4-.02v59.02m342.53-43.45c-5.21,2.11-8.63,6.26-9.47,11.49-1.29,8.02,3.97,15.38,12.09,16.94,6.25,1.2,12.89-2.34,15.75-8.38,1.08-2.29,1.18-2.8,1.18-6.19s-.09-3.89-1.18-6.11c-1.94-3.95-4.85-6.57-8.78-7.9-2.57-.87-7.27-.79-9.59.15m-327.64,13.94l.1,7.31h51.44l.1-7.31.1-7.31H29.58l.1,7.31m.16,22.17c-.14.14-.25,3.47-.25,7.4,0,7.11,0,7.15.83,7.35.46.11,13.74.16,29.51.1l28.68-.1v-14.8l-29.26-.09c-16.09-.05-29.37.02-29.51.15m318.17,8.22c-10.65,2.65-18.74,10.61-21.66,21.34-.7,2.59-.82,4.22-1,13.55-.11,5.83-.1,11,.03,11.49.16.64,1.18,1.43,3.61,2.82,19.25,10.99,42.67,11.84,62.32,2.26,2.44-1.19,5.24-2.68,6.23-3.31l1.78-1.14-.15-11.92c-.14-11.58-.17-12-1.09-14.76-3.42-10.31-11.11-17.66-21.18-20.27-2.67-.69-3.99-.76-14.62-.73-9.79.02-12.1.13-14.27.67m-209.73,3.47c-.55,1.07-1.99,3.85-3.19,6.19s-2.1,4.4-1.99,4.59c.31.5,12.22,6.16,12.97,6.16.37,0,.86-.51,1.15-1.2.28-.66.83-1.95,1.22-2.87s.86-2,1.04-2.41c1.05-2.34,2.59-6.23,2.59-6.54,0-.19-.79-.69-1.76-1.11-.97-.42-3.61-1.65-5.87-2.75-2.26-1.1-4.35-2-4.64-2s-.98.87-1.52,1.94m-108.69,25.26v7.22h59.21v-14.43H29.6v7.22"/>
  </g>
</svg>